<svg width="65" height="64" viewBox="0 0 65 64" fill="none" xmlns="http://www.w3.org/2000/svg">
<rect x="0.5" width="64" height="64" rx="32" fill="white"/>
<circle cx="32.5" cy="32" r="26" fill="#FFD2D8"/>
<g clip-path="url(#clip0_438_2288)">
<path d="M51.508 29.41C51.3797 26.1621 49.7166 20.4691 44.2553 19.7196L44.2271 19.7158C42.1813 19.435 40.0641 20.6239 39.406 22.4104C39.3042 22.6857 39.2227 22.9902 39.1429 23.2818C38.9135 24.1335 38.6928 24.9533 37.9986 25.1848C37.8279 25.2341 37.6484 25.2445 37.4731 25.2151C37.2979 25.1857 37.1316 25.1173 36.9863 25.015C36.7836 24.8887 36.6109 24.7197 36.4801 24.5199C36.3492 24.32 36.2635 24.0941 36.2288 23.8578C36.0313 21.9191 36.225 19.9605 36.7984 18.098C36.8093 18.0671 36.8131 18.0341 36.8096 18.0015C36.806 17.969 36.7952 17.9376 36.7779 17.9097C36.7606 17.8828 36.7376 17.8601 36.7106 17.843C36.6835 17.8259 36.6531 17.815 36.6214 17.811L33.1322 17.3322C33.0823 17.3241 33.0311 17.3335 32.9874 17.3589C32.9436 17.3843 32.91 17.4241 32.8923 17.4715C31.8392 20.3188 30.805 24.6371 34.1762 29.2905C34.4898 29.7243 34.8447 30.1307 35.187 30.5332C35.7311 31.1111 36.2103 31.747 36.6159 32.4294C37.1813 33.4741 37.367 35.001 36.4552 35.8849C35.5871 36.7241 34.135 36.5579 33.0662 36.1242C32.6288 35.9494 32.1978 35.7269 31.7799 35.5061C31.0675 35.0987 30.3052 34.7855 29.512 34.5745C27.03 34.0131 27.7984 36.2461 26.5001 38C25.3421 39.5677 21.8531 41.1676 21.5849 43.2019L21.5748 43.2756C21.5669 43.3331 21.5822 43.3913 21.6173 43.4375C21.6523 43.4838 21.7043 43.5142 21.7618 43.5221L24.512 43.8994C24.5655 43.9071 24.62 43.8947 24.6649 43.8646C24.7098 43.8344 24.742 43.7887 24.7552 43.7363C24.8066 43.5226 24.8529 43.2816 24.8931 43.0531C24.9463 42.6753 25.0423 42.3047 25.1793 41.9486C25.4897 41.2957 25.9927 40.3976 26.8297 40.1393C28.0122 39.7761 29.0874 40.7582 30.1272 41.709L30.5572 42.0993C34.1612 45.2809 40.4 45.5784 45.0699 42.7946C48.6906 40.6419 50.791 36.1961 51.3519 32.1088C51.4815 31.2154 51.5337 30.3124 51.508 29.41ZM39.5141 29.9258C39.5532 29.625 39.6807 29.3426 39.8805 29.1144C40.0803 28.8862 40.3434 28.7225 40.6364 28.644C40.9294 28.5655 41.2391 28.5758 41.5262 28.6736C41.8133 28.7714 42.0649 28.9522 42.2491 29.1932C42.4333 29.4342 42.5418 29.7245 42.5608 30.0272C42.5798 30.3299 42.5085 30.6315 42.3558 30.8936C42.2032 31.1557 41.9762 31.3666 41.7035 31.4995C41.4309 31.6324 41.1249 31.6814 40.8244 31.6401C40.424 31.5852 40.0614 31.3741 39.816 31.053C39.5705 30.7318 39.462 30.3266 39.5141 29.9258ZM39.8814 35.9378C39.7437 35.9193 39.6145 35.8604 39.5103 35.7685C39.406 35.6766 39.3314 35.5558 39.2959 35.4214C39.2603 35.2871 39.2654 35.1452 39.3106 35.0138C39.3557 34.8823 39.4388 34.7672 39.5494 34.6831C39.66 34.5989 39.7931 34.5494 39.9318 34.5409C40.0705 34.5325 40.2086 34.5653 40.3286 34.6354C40.4487 34.7054 40.5452 34.8095 40.606 34.9345C40.6669 35.0594 40.6893 35.1996 40.6704 35.3373C40.6583 35.4298 40.6278 35.519 40.5809 35.5996C40.5339 35.6803 40.4713 35.7508 40.3968 35.8069C40.3223 35.8631 40.2373 35.9039 40.1469 35.9268C40.0564 35.9498 39.9623 35.9545 39.87 35.9406L39.8814 35.9378ZM41.1919 40.8692C40.9599 40.8374 40.7426 40.7375 40.5674 40.5821C40.3923 40.4267 40.2671 40.2228 40.2079 39.9963C40.1486 39.7698 40.1579 39.5307 40.2345 39.3095C40.3112 39.0882 40.4517 38.8947 40.6384 38.7533C40.8251 38.6119 41.0495 38.5291 41.2832 38.5154C41.517 38.5016 41.7496 38.5575 41.9515 38.676C42.1535 38.7944 42.3158 38.9702 42.4179 39.1809C42.5199 39.3916 42.5572 39.6279 42.5249 39.8598C42.5042 40.0158 42.4524 40.166 42.3728 40.3017C42.2931 40.4374 42.1871 40.5559 42.0611 40.65C41.935 40.7442 41.7915 40.8123 41.6387 40.8502C41.486 40.8881 41.3273 40.8952 41.1718 40.8709L41.1919 40.8692ZM45.1314 34.0439C44.9942 34.0251 44.8657 33.966 44.7621 33.8742C44.6585 33.7823 44.5845 33.6618 44.5494 33.5279C44.5143 33.394 44.5197 33.2526 44.5649 33.1218C44.6101 32.9909 44.6932 32.8764 44.8034 32.7928C44.9137 32.7091 45.0464 32.66 45.1846 32.6517C45.3228 32.6434 45.4603 32.6762 45.5798 32.7461C45.6994 32.816 45.7955 32.9198 45.856 33.0443C45.9166 33.1688 45.9389 33.3084 45.92 33.4456C45.8943 33.6293 45.7968 33.7953 45.6491 33.9074C45.5013 34.0195 45.3152 34.0686 45.1314 34.0439Z" fill="#D1192E"/>
</g>
<g filter="url(#filter0_d_438_2288)">
<path d="M31.4799 33.148C31.4572 32.6218 31.4572 32.1196 31.4572 31.6173C31.4572 31.2108 31.1617 30.8999 30.7752 30.8999C27.9335 30.8999 25.7737 30.0389 23.9778 28.1973C23.705 27.9342 23.2958 27.9342 23.023 28.1973C21.227 30.0389 19.0673 30.8999 16.2255 30.8999C15.8391 30.8999 15.5435 31.2108 15.5435 31.6173C15.5435 32.1196 15.5435 32.6218 15.5208 33.148C15.4299 38.1704 15.2935 45.0583 23.273 47.9522L23.5004 48L23.7277 47.9522C31.6845 45.0583 31.5709 38.1943 31.4799 33.148ZM22.9548 40.1076C22.8184 40.2272 22.6592 40.299 22.4773 40.299H22.4546C22.2727 40.299 22.0909 40.2033 21.9772 40.0598L19.863 37.5964L20.886 36.6398L22.5455 38.577L26.2284 34.8939L27.1605 35.9462L22.9548 40.1076Z" fill="#D1192E"/>
</g>
<defs>
<filter id="filter0_d_438_2288" x="15.5" y="28" width="18" height="20" filterUnits="userSpaceOnUse" color-interpolation-filters="sRGB">
<feFlood flood-opacity="0" result="BackgroundImageFix"/>
<feColorMatrix in="SourceAlpha" type="matrix" values="0 0 0 0 0 0 0 0 0 0 0 0 0 0 0 0 0 0 127 0" result="hardAlpha"/>
<feOffset dx="2"/>
<feComposite in2="hardAlpha" operator="out"/>
<feColorMatrix type="matrix" values="0 0 0 0 1 0 0 0 0 0.823529 0 0 0 0 0.847059 0 0 0 1 0"/>
<feBlend mode="normal" in2="BackgroundImageFix" result="effect1_dropShadow_438_2288"/>
<feBlend mode="normal" in="SourceGraphic" in2="effect1_dropShadow_438_2288" result="shape"/>
</filter>
<clipPath id="clip0_438_2288">
<rect width="28" height="28" fill="white" transform="translate(25.3066 16) rotate(7.81346)"/>
</clipPath>
</defs>
</svg>