<svg width="65" height="64" viewBox="0 0 65 64" fill="none" xmlns="http://www.w3.org/2000/svg">
<rect x="0.5" width="64" height="64" rx="32" fill="white"/>
<circle cx="32.5" cy="32" r="26" fill="#FFEAA8"/>
<g clip-path="url(#clip0_437_4497)">
<path d="M45.508 29.41C45.3797 26.1621 43.7166 20.4691 38.2553 19.7196L38.2271 19.7158C36.1813 19.435 34.0641 20.6239 33.406 22.4104C33.3042 22.6857 33.2227 22.9902 33.1429 23.2818C32.9135 24.1335 32.6928 24.9533 31.9986 25.1848C31.8279 25.2341 31.6484 25.2445 31.4731 25.2151C31.2979 25.1857 31.1316 25.1173 30.9863 25.015C30.7836 24.8887 30.6109 24.7197 30.4801 24.5199C30.3492 24.32 30.2635 24.0941 30.2288 23.8578C30.0313 21.9191 30.225 19.9605 30.7984 18.098C30.8093 18.0671 30.8131 18.0341 30.8096 18.0015C30.806 17.969 30.7952 17.9376 30.7779 17.9097C30.7606 17.8828 30.7376 17.8601 30.7106 17.843C30.6835 17.8259 30.6531 17.815 30.6214 17.811L27.1322 17.3322C27.0823 17.3241 27.0311 17.3335 26.9874 17.3589C26.9436 17.3843 26.91 17.4241 26.8923 17.4715C25.8392 20.3188 24.805 24.6371 28.1762 29.2905C28.4898 29.7243 28.8447 30.1307 29.187 30.5332C29.7311 31.1111 30.2103 31.747 30.6159 32.4294C31.1813 33.4741 31.367 35.001 30.4552 35.8849C29.5871 36.7241 28.135 36.5579 27.0662 36.1242C26.6288 35.9494 26.1978 35.7269 25.7799 35.5061C25.0675 35.0987 24.3052 34.7855 23.512 34.5745C21.03 34.0131 19.2984 35.7462 18.0001 37.5C16.8421 39.0678 15.8531 41.1676 15.5849 43.2019L15.5748 43.2756C15.5669 43.3331 15.5822 43.3913 15.6173 43.4375C15.6523 43.4838 15.7043 43.5142 15.7618 43.5221L18.512 43.8994C18.5655 43.9071 18.62 43.8947 18.6649 43.8646C18.7098 43.8344 18.742 43.7887 18.7552 43.7363C18.8066 43.5226 18.8529 43.2816 18.8931 43.0531C18.9463 42.6753 19.0423 42.3047 19.1793 41.9486C19.4897 41.2957 19.9927 40.3976 20.8297 40.1393C22.0122 39.7761 23.0874 40.7582 24.1272 41.709L24.5572 42.0993C28.1612 45.2809 34.4 45.5784 39.0699 42.7946C42.6906 40.6419 44.791 36.1961 45.3519 32.1088C45.4815 31.2154 45.5337 30.3124 45.508 29.41ZM33.5141 29.9258C33.5532 29.625 33.6807 29.3426 33.8805 29.1144C34.0803 28.8862 34.3434 28.7225 34.6364 28.644C34.9294 28.5655 35.2391 28.5758 35.5262 28.6736C35.8133 28.7714 36.0649 28.9522 36.2491 29.1932C36.4333 29.4342 36.5418 29.7245 36.5608 30.0272C36.5798 30.3299 36.5085 30.6315 36.3558 30.8936C36.2032 31.1557 35.9762 31.3666 35.7035 31.4995C35.4309 31.6324 35.1249 31.6814 34.8244 31.6401C34.424 31.5852 34.0614 31.3741 33.816 31.053C33.5705 30.7318 33.462 30.3266 33.5141 29.9258ZM33.8814 35.9378C33.7437 35.9193 33.6145 35.8604 33.5103 35.7685C33.406 35.6766 33.3314 35.5558 33.2959 35.4214C33.2603 35.2871 33.2654 35.1452 33.3106 35.0138C33.3557 34.8823 33.4388 34.7672 33.5494 34.6831C33.66 34.5989 33.7931 34.5494 33.9318 34.5409C34.0705 34.5325 34.2086 34.5653 34.3286 34.6354C34.4487 34.7054 34.5452 34.8095 34.606 34.9345C34.6669 35.0594 34.6893 35.1996 34.6704 35.3373C34.6583 35.4298 34.6278 35.519 34.5809 35.5996C34.5339 35.6803 34.4713 35.7508 34.3968 35.8069C34.3223 35.8631 34.2373 35.9039 34.1469 35.9268C34.0564 35.9498 33.9623 35.9545 33.87 35.9406L33.8814 35.9378ZM35.1919 40.8692C34.9599 40.8374 34.7426 40.7375 34.5674 40.5821C34.3923 40.4267 34.2671 40.2228 34.2079 39.9963C34.1486 39.7698 34.1579 39.5307 34.2345 39.3095C34.3112 39.0882 34.4517 38.8947 34.6384 38.7533C34.8251 38.6119 35.0495 38.5291 35.2832 38.5154C35.517 38.5016 35.7496 38.5575 35.9515 38.676C36.1535 38.7944 36.3158 38.9702 36.4179 39.1809C36.5199 39.3916 36.5572 39.6279 36.5249 39.8598C36.5042 40.0158 36.4524 40.166 36.3728 40.3017C36.2931 40.4374 36.1871 40.5559 36.0611 40.65C35.935 40.7442 35.7915 40.8123 35.6387 40.8502C35.486 40.8881 35.3273 40.8952 35.1718 40.8709L35.1919 40.8692ZM39.1314 34.0439C38.9942 34.0251 38.8657 33.966 38.7621 33.8742C38.6585 33.7823 38.5845 33.6618 38.5494 33.5279C38.5143 33.394 38.5197 33.2526 38.5649 33.1218C38.6101 32.9909 38.6932 32.8764 38.8034 32.7928C38.9137 32.7091 39.0464 32.66 39.1846 32.6517C39.3228 32.6434 39.4603 32.6762 39.5798 32.7461C39.6994 32.816 39.7955 32.9198 39.856 33.0443C39.9166 33.1688 39.9389 33.3084 39.92 33.4456C39.8943 33.6293 39.7968 33.7953 39.6491 33.9074C39.5013 34.0195 39.3152 34.0686 39.1314 34.0439Z" fill="#01367D"/>
</g>
<defs>
<clipPath id="clip0_437_4497">
<rect width="28" height="28" fill="white" transform="translate(19.3066 16) rotate(7.81346)"/>
</clipPath>
</defs>
</svg>