<svg width="160" height="50" viewBox="0 0 160 50" fill="none" xmlns="http://www.w3.org/2000/svg"><path d="M1.87 45.747c1.269.99 2.81 1.483 4.616 1.483.563 0 1.005-.1 1.329-.294.323-.194.487-.463.487-.806 0-.452-.353-.77-1.064-.95-.21-.05-.642-.13-1.304-.239-.512-.084-.935-.159-1.273-.228a8.134 8.134 0 0 1-1.244-.383c-.492-.19-.89-.408-1.183-.652-.294-.244-.548-.582-.771-1.01-.22-.428-.329-.915-.329-1.467 0-1.259.478-2.219 1.428-2.875.95-.662 2.238-.99 3.865-.99 1.83 0 3.467.413 4.91 1.244l-1.284 2.437c-1.15-.672-2.422-1.01-3.83-1.01-1.209 0-1.816.338-1.816 1.01 0 .159.04.298.12.413.08.114.169.209.273.283.105.075.264.14.478.204.214.06.393.11.542.14.144.03.358.07.642.119 1.467.253 2.487.512 3.059.77 1.377.613 2.074 1.607 2.089 2.985 0 1.294-.488 2.298-1.458 3.005C9.182 49.642 7.84 50 6.133 50a9.62 9.62 0 0 1-3.079-.492c-.98-.329-1.8-.761-2.482-1.274l1.299-2.487zM13.224 37.538h3.332l1.816 8.277 2.233-8.277H23.5l2.288 8.188 1.776-8.188h3.333L27.525 49.79h-3.388l-2.089-7.75-2.124 7.75h-3.387l-3.313-12.252zM33.41 49.79V37.538h9.027v2.746h-5.914v2.05h5.735v2.62h-5.735v2.09h6.118v2.746H33.41zM45.714 37.538h4.944c1.98 0 3.522.557 4.626 1.677 1.104 1.119 1.656 2.611 1.656 4.476 0 1.856-.537 3.338-1.611 4.442-1.075 1.104-2.577 1.657-4.507 1.657h-5.108V37.538zm5.382 9.322c.77 0 1.398-.299 1.885-.895.487-.597.731-1.378.731-2.343 0-.94-.244-1.702-.73-2.279-.488-.581-1.13-.87-1.926-.87h-2.164v6.392h2.204v-.005zM59.31 49.79V37.538h9.029v2.746h-5.915v2.05h5.735v2.62h-5.735v2.09h6.119v2.746H59.31zM74.025 37.538l5.183 7.327v-7.327h3.04V49.79h-2.93l-5.258-7.292v7.292h-3.04V37.538h3.005z" fill="#00AEEF"/><path d="M66.382 27.483a4.057 4.057 0 0 0 4.059 4.06h2.193V10.033h-6.252v17.45zM99.583 9.762c-6.61 0-11.35 4.641-11.35 11.087 0 6.432 4.74 11.088 11.35 11.088 6.521 0 11.302-4.651 11.302-11.088 0-6.446-4.781-11.087-11.302-11.087zm0 16.962c-3.203 0-5.546-2.472-5.546-5.88 0-3.417 2.348-5.929 5.546-5.929 3.114 0 5.502 2.512 5.502 5.93 0 3.407-2.383 5.879-5.502 5.879zM123.892 9.762c-6.611 0-11.341 4.641-11.341 11.087 0 6.432 4.73 11.088 11.341 11.088 6.521 0 11.301-4.651 11.301-11.088 0-6.446-4.78-11.087-11.301-11.087zm0 16.962c-3.194 0-5.537-2.472-5.537-5.88 0-3.417 2.348-5.929 5.537-5.929 3.113 0 5.501 2.512 5.501 5.93 0 3.407-2.383 5.879-5.501 5.879zM82.184 15.235V31.54H76V8.336c0-6.267 3.745-8.312 8.053-8.312 2.308 0 4.482.567 6.705 2.527-1 1.612-1.96 2.527-3.392 2.527-.826 0-1.567-.264-2.438-.955-.825-.612-1.173-.741-1.696-.741-.96 0-1.522.612-1.522 2.353 0 1.044.09 2.83.264 4.347h7.312c0 2.482-1.652 5.163-4.462 5.163h-2.641v-.01zM27.996 22.415v-12.38h6.292s-.01 12.34 0 12.589c.015.437.065.79.09 1.014.398 1.617 1.88 2.711 3.716 2.711a4.042 4.042 0 0 0 2.884-1.179c.632-.631.871-1.139.916-2.541.01-.25 0-12.585 0-12.585v-.005h6.297v21.508h-1.547c-.487 0-.95-.074-1.393-.214-.064-.02-.134-.04-.194-.07l-.204-.079a4.89 4.89 0 0 1-.825-.443 4.51 4.51 0 0 1-.443-.318c-1.244 1.03-3.044 1.696-5.069 1.78-.144 0-.766 0-.935-.004-2.552-.09-4.855-.87-6.7-2.303-2.099-1.711-2.885-3.681-2.885-7.481zM153.297 0h2.224c2.228 0 4.039 1.78 4.039 3.98v27.56h-3.348c-1.611 0-2.915-1.282-2.915-2.87-1.044 2.314-3.218 3.323-6.481 3.323-5.785 0-9.829-4.54-9.829-11.052 0-6.337 4.303-11.177 10.003-11.177 2.915 0 5.004 1.07 6.307 3.298V0zM143.25 20.772c0 3.522 2.173 5.959 5.262 5.959 3.129 0 5.263-2.393 5.263-6.004 0-3.521-2.174-6.043-5.307-6.043-3.045 0-5.218 2.566-5.218 6.088zM60.786 26.923h-.02c-1.527 0-2.646-.855-2.83-2.198-.045-.359 0-9.357 0-9.357h2.243c2.95 0 4.566-2.392 4.566-5.342H57.936V1.953L53.578 3.72a3.294 3.294 0 0 0-2.059 3.059v17.275c0 3.188.224 4.129 1.393 5.566 1.348 1.662 3.367 2.467 5.834 2.467 1.617 0 3.094-.223 5.164-.805l-.398-2.104a2.776 2.776 0 0 0-2.726-2.254zM69.51 7.297a3.636 3.636 0 1 0 0-7.273 3.636 3.636 0 0 0 0 7.273zM24.672 0v31.54h-3.03c-2.148 0-4.148-1.173-5.302-3.108L6.96 12.64h-.08v18.902H.572V0h2.875c2.16 0 4.169 1.184 5.313 3.134l9.57 16.245h.08V0h6.262z" fill="#006E43"/><path d="M115.008 44.035c-4.567.04-9.138-.572-13.43-2.04-3.249-1.114-6.318-2.73-8.979-4.83a25.137 25.137 0 0 1-3.601-3.447c-.299-.348-1.433-1.487-.448-1.756.692-.189 1.607.95 2.005 1.358 2.954 3.024 6.79 5.213 10.888 6.556 4.099 1.343 8.476 1.85 12.814 1.786 3.024-.045 6.073-.373 8.928-1.313 2.86-.94 5.531-2.522 7.416-4.78.284-.339.563-.707.956-.926.88-.492 2.014-.114 2.885.393.288.164.591.378.656.692.065.313-.129.621-.323.885-1.871 2.492-4.616 4.313-7.601 5.462-2.979 1.149-6.197 1.656-9.406 1.86-.915.055-1.84.09-2.76.1z" fill="#FFCD00"/></svg>