<svg width="32" height="32" viewBox="0 0 32 32" fill="none" xmlns="http://www.w3.org/2000/svg"><path d="M11.52 31.36v-8l-6.463 4.352c1.856 1.664 4.032 2.944 6.464 3.648zm18.24-7.168c.257-.384.449-.832.705-1.28.384-.768.704-1.6.96-2.432h-7.232l5.568 3.712zm-9.28 7.168c2.433-.704 4.609-1.984 6.465-3.648L20.48 23.36v8zM.64 20.48c.385 1.28.897 2.56 1.6 3.712L7.81 20.48H.64zM20.48.64v8l6.465-4.288C25.089 2.624 22.913 1.344 20.48.64zm10.88 10.88c-.383-1.28-.895-2.56-1.6-3.712l-5.567 3.712h7.168zM2.24 7.808C1.538 8.96 1.026 10.24.64 11.52H7.81L2.24 7.808zm9.28.832v-8c-2.431.704-4.607 1.984-6.463 3.648L11.52 8.64z" fill="url(#a)"/><path d="M11.52 11.52v-.384L3.584 5.888c-.32.384-.64.768-.896 1.216l6.656 4.416h2.176zm8.96 8.96v.384l7.936 5.248c.32-.384.64-.768.896-1.216l-6.656-4.416H20.48zm7.104-15.552L20.48 9.664v1.792l8.064-5.376-.96-1.152zM4.416 27.072l7.104-4.736v-1.792L3.456 25.92l.96 1.152zm27.328-14.08H19.008V.256C18.048.128 17.024 0 16 0s-2.048.128-3.008.256v12.736H.256C.128 13.952 0 14.976 0 16s.128 2.048.256 3.008h12.736v12.736c.96.192 1.984.256 3.008.256s2.048-.128 3.008-.256V19.008h12.736c.192-.96.256-1.984.256-3.008s-.128-2.048-.256-3.008z" fill="url(#b)"/><defs><linearGradient id="a" x1=".641" y1="16" x2="31.36" y2="16" gradientUnits="userSpaceOnUse"><stop stop-color="#04266B"/><stop offset="1" stop-color="#1D428F"/></linearGradient><linearGradient id="b" y1="16" x2="32" y2="16" gradientUnits="userSpaceOnUse"><stop stop-color="#D90000"/><stop offset="1" stop-color="#F22613"/></linearGradient></defs></svg>