<svg width="61" height="60" viewBox="0 0 61 60" fill="none" xmlns="http://www.w3.org/2000/svg">
<circle cx="30.5" cy="30" r="30" fill="#0368C6"/>
<path d="M29.2595 40.2536C29.4888 40.4831 29.7381 40.6752 30.0345 40.807C30.3332 40.9398 30.654 41.0002 31.0122 41.0002C31.3629 41.0002 31.7277 40.9423 32.0475 40.8144C32.3364 40.6987 32.6329 40.5067 32.8145 40.2041L49.7542 23.2537C50.7488 22.2584 50.7488 20.742 49.7542 19.7468C48.7594 18.7514 47.2434 18.7514 46.2487 19.7468L31.0122 34.9928L24.3703 28.3468C23.3756 27.3514 21.8596 27.3514 20.8648 28.3468C19.8702 29.342 19.8702 30.8584 20.8648 31.8536L29.2595 40.2536Z" fill="white" stroke="white"/>
<path d="M27.8909 28.352L27.5379 28.7163L27.9073 29.064L28.25 28.7L27.9073 29.064L27.9073 29.0641L27.9074 29.0642L27.9079 29.0646L27.9098 29.0664L27.917 29.0732L27.945 29.0995L28.0489 29.1972C28.1373 29.2802 28.2608 29.3962 28.4016 29.528C28.6828 29.7912 29.0339 30.1188 29.3106 30.3733C29.5903 30.6307 29.95 30.9569 30.239 31.2181C30.3837 31.3489 30.5109 31.4636 30.602 31.5457L30.7092 31.6422L30.7381 31.6681L30.7456 31.6749L30.7475 31.6766L30.748 31.677L30.7481 31.6772L30.7482 31.6772L31.0824 31.3053L30.7482 31.6772L31.102 31.9951L31.4372 31.6577L37.7978 25.2534C37.798 25.2532 37.7983 25.253 37.7985 25.2528C38.7924 24.2575 38.7922 22.7416 37.7978 21.7466C36.803 20.7512 35.2871 20.7512 34.2923 21.7466L34.2922 21.7465L34.2869 21.7521L27.8909 28.352ZM19.2656 40.2533C19.495 40.4828 19.7443 40.6749 20.0407 40.8067C20.3394 40.9395 20.6602 40.9999 21.0184 40.9999C21.369 40.9999 21.7339 40.942 22.0537 40.8141C22.3437 40.698 22.6414 40.505 22.8227 40.2003C23.7655 39.2049 23.7483 37.7242 22.7712 36.7464L14.3765 28.3465C13.3817 27.3511 11.8657 27.3511 10.871 28.3465C9.87635 29.3417 9.87635 30.8581 10.871 31.8533L19.2656 40.2533Z" fill="#E0EEFE" stroke="#E0EEFE"/>
</svg>