<svg width="65" height="64" viewBox="0 0 65 64" fill="none" xmlns="http://www.w3.org/2000/svg">
<rect x="0.5" width="64" height="64" rx="32" fill="white"/>
<circle cx="32.5" cy="32" r="26" fill="#FFEAA8"/>
<path fill-rule="evenodd" clip-rule="evenodd" d="M18.8721 35.5577C18.8721 35.7237 18.6816 35.8175 18.5501 35.7162L14.578 32.6585C14.474 32.5784 14.474 32.4216 14.578 32.3415L18.5501 29.2838C18.6816 29.1825 18.8721 29.2763 18.8721 29.4423V30.7999C18.8721 30.9104 18.9617 30.9999 19.0721 30.9999L22.1721 30.9999C22.2826 30.9999 22.3721 31.0895 22.3721 31.1999V33.7999C22.3721 33.9104 22.2826 33.9999 22.1721 33.9999H19.0721C18.9617 33.9999 18.8721 34.0895 18.8721 34.1999V35.5577Z" fill="#01367D"/>
<path d="M32.3724 22.9375C34.0052 22.9375 35.3293 21.6081 35.3293 19.9688C35.3292 18.3289 34.0052 17 32.3724 17C30.739 17 29.4144 18.3289 29.4144 19.9687C29.4143 21.6081 30.7389 22.9375 32.3724 22.9375Z" fill="#01367D"/>
<path d="M40.2498 33.112L36.9531 25.524C36.6208 24.7589 35.9215 24.2511 35.1195 24.1145C34.9982 24.0824 29.7465 24.0818 29.621 24.1156C28.8201 24.2526 28.1222 24.7603 27.7906 25.5245L24.4942 33.1115C24.2967 33.5671 24.3409 34.0917 24.6121 34.5076C24.8833 34.9235 25.345 35.1738 25.8402 35.1738C26.4243 35.1738 26.9524 34.8268 27.1861 34.2895L28.4284 31.4304V46.3923C28.4284 47.2803 29.1456 48 30.0304 48C30.9157 48 31.6327 47.2803 31.6327 46.3923V36.2999H33.1118V46.3923C33.1118 47.2803 33.829 48 34.7137 48C35.5979 48 36.3151 47.2803 36.3151 46.3928V31.4293L37.5579 34.29C37.7915 34.8273 38.3197 35.1744 38.9039 35.1744C39.399 35.1744 39.8607 34.9241 40.1319 34.5082C40.4033 34.0927 40.4478 33.5676 40.2498 33.112Z" fill="#01367D"/>
<path fill-rule="evenodd" clip-rule="evenodd" d="M45.8721 35.5577C45.8721 35.7237 46.0626 35.8175 46.1941 35.7162L50.1663 32.6585C50.2703 32.5784 50.2703 32.4216 50.1663 32.3415L46.1941 29.2838C46.0626 29.1825 45.8721 29.2763 45.8721 29.4423V30.7999C45.8721 30.9104 45.7826 30.9999 45.6721 30.9999L42.5721 30.9999C42.4617 30.9999 42.3721 31.0895 42.3721 31.1999V33.7999C42.3721 33.9104 42.4617 33.9999 42.5721 33.9999H45.6721C45.7826 33.9999 45.8721 34.0895 45.8721 34.1999V35.5577Z" fill="#01367D"/>
</svg>