<svg width="65" height="64" viewBox="0 0 65 64" fill="none" xmlns="http://www.w3.org/2000/svg">
<rect x="0.5" width="64" height="64" rx="32" fill="white"/>
<circle cx="32.5" cy="32" r="26" fill="#FFD2D8"/>
<path d="M24.5002 22.9375C26.1331 22.9375 27.4571 21.6081 27.4571 19.9688C27.4571 18.3289 26.1331 17 24.5002 17C22.8668 17 21.5422 18.3289 21.5422 19.9687C21.5422 21.6081 22.8668 22.9375 24.5002 22.9375Z" fill="#D1192E"/>
<path d="M32.3777 33.112L29.0809 25.524C28.7487 24.7589 28.0494 24.2511 27.2474 24.1145C27.126 24.0824 21.8743 24.0818 21.7489 24.1156C20.9479 24.2526 20.2501 24.7603 19.9185 25.5245L16.6221 33.1115C16.4245 33.5671 16.4688 34.0917 16.74 34.5076C17.0112 34.9235 17.4728 35.1738 17.9681 35.1738C18.5522 35.1738 19.0803 34.8268 19.314 34.2895L20.5563 31.4304V46.3923C20.5563 47.2803 21.2734 48 22.1582 48C23.0435 48 23.7606 47.2803 23.7606 46.3923V36.2999H25.2397V46.3923C25.2397 47.2803 25.9568 48 26.8415 48C27.7258 48 28.4429 47.2803 28.4429 46.3928V31.4293L29.6858 34.29C29.9194 34.8273 30.4476 35.1744 31.0318 35.1744C31.5269 35.1744 31.9886 34.9241 32.2598 34.5082C32.5311 34.0927 32.5757 33.5676 32.3777 33.112Z" fill="#D1192E"/>
<rect x="36.5" y="17" width="10" height="31" fill="#D1192E"/>
<rect x="36.5" y="20" width="5" height="1" fill="#FFD2D8"/>
<rect x="36.5" y="23" width="3" height="1" fill="#FFD2D8"/>
<rect x="36.5" y="26" width="5" height="1" fill="#FFD2D8"/>
<rect x="36.5" y="29" width="3" height="1" fill="#FFD2D8"/>
<rect x="36.5" y="32" width="5" height="1" fill="#FFD2D8"/>
<rect x="36.5" y="35" width="3" height="1" fill="#FFD2D8"/>
<rect x="36.5" y="38" width="5" height="1" fill="#FFD2D8"/>
<rect x="36.5" y="44" width="5" height="1" fill="#FFD2D8"/>
<rect x="36.5" y="41" width="3" height="1" fill="#FFD2D8"/>
</svg>