<svg width="65" height="64" viewBox="0 0 65 64" fill="none" xmlns="http://www.w3.org/2000/svg">
<rect x="0.5" width="64" height="64" rx="32" fill="white"/>
<circle cx="32.5" cy="32" r="26" fill="#FFEAA8"/>
<g clip-path="url(#clip0_437_4519)">
<path d="M29.7605 38.0717C29.8262 37.1243 30.9087 36.6056 31.6911 37.1438C32.3794 37.6176 33.3189 37.1241 33.3189 36.2879V32.8475H35.8963C35.4385 34.7166 36.9205 36.5375 38.8918 36.4014C40.6263 36.2812 41.9125 34.6111 41.4794 32.8475H44.0828C46.2612 36.1411 44.0673 40.9064 39.8223 41.1244C40.3023 43.6592 38.3478 45.9957 35.7864 45.9957C34.8611 45.9957 34.0064 45.6882 33.3189 45.1701V40.0353C33.3189 39.1997 32.3801 38.7053 31.691 39.1794C30.8538 39.7553 29.6879 39.1191 29.7605 38.0717Z" fill="#01367D"/>
<path d="M24.4352 32.8474C25.271 32.8474 25.7652 31.9084 25.291 31.2195C24.7177 30.3865 25.3471 29.217 26.399 29.2896C27.3485 29.3554 27.8647 30.4387 27.3272 31.2197C26.8532 31.9083 27.3471 32.8474 28.1831 32.8474H31.6788V35.371C29.9113 34.9368 28.2444 36.2279 28.1243 37.9583C27.9882 39.9213 29.8016 41.4131 31.6788 40.9535V45.17C28.7359 47.3879 24.5199 44.8555 25.1657 41.1786C20.8953 40.9517 18.7342 36.1762 20.9315 32.8474H24.4352Z" fill="#01367D"/>
<path d="M44.0554 31.2073H40.5625C39.7264 31.2073 39.2327 32.1466 39.7066 32.8351C40.2446 33.6164 39.727 34.6994 38.7784 34.7652C37.7268 34.8382 37.0969 33.6687 37.6705 32.8353C38.1445 32.1464 37.6507 31.2073 36.8146 31.2073H33.319V28.6852C35.1909 29.1435 37.0099 27.6578 36.8734 25.6901C36.7533 23.959 35.086 22.6689 33.319 23.1027V18.8299C36.2619 16.612 40.4779 19.1445 39.8321 22.8213C43.9998 23.0429 46.3164 27.7186 44.0554 31.2073Z" fill="#01367D"/>
<path d="M35.2371 25.8035C35.3097 26.8504 34.1439 27.4872 33.3067 26.911C32.618 26.4375 31.6787 26.9306 31.6787 27.7669V31.2073H29.1C29.5464 29.3906 28.1626 27.6461 26.3055 27.6461C24.4308 27.6461 23.0771 29.4126 23.5168 31.2073H20.9317C18.7356 27.8789 20.8925 23.0955 25.1754 22.8756C24.6954 20.3408 26.6499 18.0042 29.2113 18.0042C30.1366 18.0042 30.9913 18.3118 31.6788 18.8299V24.0195C31.6788 24.855 32.6177 25.3495 33.3065 24.8754C34.0873 24.338 35.1713 24.8542 35.2371 25.8035Z" fill="#01367D"/>
</g>
<defs>
<clipPath id="clip0_437_4519">
<rect width="28" height="28" fill="white" transform="matrix(1 0 0 -1 18.5 46)"/>
</clipPath>
</defs>
</svg>