<svg width="16" height="13" viewBox="0 0 16 13" fill="none" xmlns="http://www.w3.org/2000/svg"><path fill-rule="evenodd" clip-rule="evenodd" d="M15.84 2.908a3.65 3.65 0 0 0-.633-1.642c-.424-.443-1-.694-1.603-.7C11.366.398 8.007.398 8.007.398H8s-3.359 0-5.597.168a2.252 2.252 0 0 0-1.603.7 3.648 3.648 0 0 0-.633 1.642A25.857 25.857 0 0 0 0 5.585V6.84c.007.895.06 1.788.16 2.677.075.594.292 1.158.633 1.642a2.662 2.662 0 0 0 1.764.707c1.28.128 5.44.167 5.44.167s3.361-.005 5.6-.172a2.25 2.25 0 0 0 1.603-.702 3.65 3.65 0 0 0 .633-1.642c.102-.888.158-1.782.167-2.677V5.585a25.911 25.911 0 0 0-.16-2.677zM6.345 8.363V3.712l4.328 2.334-4.328 2.317z" fill="#CD201F"/></svg>